<svg fill="#cecece" xmlns="http://www.w3.org/2000/svg"  viewBox="0 0 50 50" width="50px" height="50px" fill-rule="evenodd" clip-rule="evenodd"><path fill-rule="evenodd" d="M37,34H13V16h24V34z M25,2C12.317,2,2,12.317,2,25s10.317,23,23,23s23-10.317,23-23S37.683,2,25,2z" clip-rule="evenodd"/><path fill="none" stroke="#cecece" stroke-miterlimit="2.613" stroke-width="2" d="M29.178 25.331L40.309 34.049M10.638 33.245L21.158 25.063M10.169 16.098c0 0 12.086 10.447 12.836 11.099C23.754 27.85 24.534 28 25 28c.466 0 1.246-.149 1.996-.802.749-.653 12.242-10.631 12.242-10.631"/></svg>