<svg fill="#cecece" xmlns="http://www.w3.org/2000/svg"  viewBox="0 0 50 50" width="50px" height="50px"><path fill="none" stroke="#cecece" stroke-miterlimit="10" stroke-width="2" d="M33 38L37 38 37 29 42 29 42 38 46 38 39.5 45.48z"/><path d="M43,2H6v45h33.5L32,38l4.744-0.488L36,29h7V2z M14.444,14.93c0.036-0.397,0-0.674,0-1.037c-0.18-0.095-0.683-0.605-0.761-1.174c0,0-0.407-0.194-0.429-0.806c-0.012-0.324,0.216-0.554,0.216-0.554C13.045,9.73,13.229,8.04,15.409,8c0.545,0,0.955,0.263,1.118,0.55c1.517,0,1.123,2.116,0.893,2.808c0.085,0.086,0.19,0.32,0.19,0.636c0,0.453-0.429,0.724-0.429,0.724c-0.082,0.578-0.489,1.055-0.737,1.174c0,0.363-0.036,0.64,0,1.037c0.432,1.16,3.311,0.834,3.445,3.071H11C11.134,15.763,14.013,16.089,14.444,14.93z M26,39H12c-0.552,0-1-0.448-1-1s0.448-1,1-1h14c0.552,0,1,0.448,1,1S26.552,39,26,39z M11,32c0-0.552,0.448-1,1-1h11c0.552,0,1,0.448,1,1s-0.448,1-1,1H12C11.448,33,11,32.552,11,32z M26,27H12c-0.552,0-1-0.448-1-1s0.448-1,1-1h14c0.552,0,1,0.448,1,1S26.552,27,26,27z M34,17h-8c-0.552,0-1-0.448-1-1s0.448-1,1-1h8c0.552,0,1,0.448,1,1S34.552,17,34,17z M34,12h-8c-0.552,0-1-0.448-1-1s0.448-1,1-1h8c0.552,0,1,0.448,1,1S34.552,12,34,12z"/></svg>