<svg fill="#cecece" xmlns="http://www.w3.org/2000/svg"  viewBox="0 0 50 50" width="50px" height="50px"><path d="M2 21A2 2 0 1 0 2 25 2 2 0 1 0 2 21zM9.5 8A1.5 1.5 0 1 0 9.5 11 1.5 1.5 0 1 0 9.5 8zM15 1A1 1 0 1 0 15 3 1 1 0 1 0 15 1zM28 2A2 2 0 1 0 28 6 2 2 0 1 0 28 2zM44 13A2 2 0 1 0 44 17 2 2 0 1 0 44 13zM49 20A1 1 0 1 0 49 22 1 1 0 1 0 49 20zM46.5 25A1.5 1.5 0 1 0 46.5 28 1.5 1.5 0 1 0 46.5 25zM38 42A2 2 0 1 0 38 46 2 2 0 1 0 38 42zM23.5 46A1.5 1.5 0 1 0 23.5 49 1.5 1.5 0 1 0 23.5 46zM44 22.5c0-2.53-1.722-4.674-4.085-5.299C39.972 16.797 40 16.396 40 16c0-4.962-4.037-9-9-9-1.191 0-2.349.233-3.448.693C25.901 6.583 23.994 6 22 6c-4.457 0-8.29 2.877-9.561 7.082C8.773 13.597 6 16.723 6 20.5c0 1.192.283 2.358.824 3.414C5.643 25.343 5 27.122 5 29c0 3.673 2.521 6.846 6.005 7.742C11.002 36.829 11 36.915 11 37c0 4.411 3.589 8 8 8 1.859 0 3.61-.627 5.03-1.786C25.229 44.36 26.809 45 28.5 45c3.031 0 5.637-2.129 6.32-5.002C34.881 39.999 34.94 40 35 40c4.963 0 9-4.038 9-9 0-1.739-.487-3.395-1.416-4.84C43.493 25.157 44 23.865 44 22.5zM33.5 32c.828 0 1.5.672 1.5 1.5S34.328 35 33.5 35c-6.125 0-6.5-3.25-6.5-4 0-.871.073-1.452.312-2.125.054-.152 3.573-7.403 3.604-7.474.059-.135.086-.275.084-.413-.005-.38-.227-.741-.599-.904-.506-.222-1.096.009-1.317.514 0 0-4.546 9.928-4.729 10.349-.385.886-1.416 1.293-2.303.907-.665-.289-1.06-.941-1.053-1.623.002-.227.049-.458.145-.68.196-.451 2.781-7.1 2.784-7.109.045-.118.07-.246.07-.381C24 21.476 23.524 21 22.937 21c-.455 0-.842.287-.993.689-.743 1.944-3.594 9.505-3.871 10.317-.419 1.228-1.586 1.984-2.856 1.994-.352.003-.712-.04-1.065-.16-1.631-.556-2.52-2.278-1.985-3.846.394-1.157 3.195-10.176 3.557-11.374C16.2 17.047 17.315 16 19.565 16c1.625 0 2.86 1 3.86 1 .766 0 1.516-2 3.516-2 1.282 0 2.364.81 2.793 1.941.019.05.077.065.117.029.716-.638 1.667-.966 2.715-.966 1.25 0 2.434.87 2.434 2.87 0 2.25-1.375 4.25-3.5 9.125-.206.472-.5 1.304-.5 2C31 30.875 31.5 32 33.5 32zM8 39A1 1 0 1 0 8 41 1 1 0 1 0 8 39z"/></svg>