<svg fill="#cecece" xmlns="http://www.w3.org/2000/svg"  viewBox="0 0 48 48" width="50px" height="50px"><path d="M31.51,24.67L28,22.19V11.05h12.5c2.42,0,4.4,1.92,4.49,4.32L31.51,24.67z"/><path d="M45,19.01v14.54c0,2.48-2.02,4.5-4.5,4.5H28V25.86l2.63,1.86C30.89,27.91,31.2,28,31.5,28s0.6-0.09,0.85-0.27L45,19.01z"/><path d="M23.5,7.593v32.814c0,1.279-1.185,2.23-2.434,1.952L7.849,39.422C6.477,39.117,5.5,37.9,5.5,36.493V11.507 c0-1.406,0.977-2.624,2.349-2.929l13.217-2.937C22.315,5.363,23.5,6.314,23.5,7.593z M20,24.5c0-4.486-2.416-8-5.5-8 S9,20.014,9,24.5s2.416,8,5.5,8S20,28.986,20,24.5z M17,24.5c0,2.862-1.32,5-2.5,5s-2.5-2.138-2.5-5s1.32-5,2.5-5 S17,21.638,17,24.5z"/><path fill="none" stroke="#cecece" stroke-miterlimit="10" stroke-width="3" d="M23.5,7.593v32.814 c0,1.279-1.185,2.23-2.434,1.952L7.849,39.422C6.477,39.117,5.5,37.9,5.5,36.493V11.507c0-1.406,0.977-2.624,2.349-2.929 l13.217-2.937C22.315,5.363,23.5,6.314,23.5,7.593z"/></svg>