<svg fill="#cecece" xmlns="http://www.w3.org/2000/svg"  viewBox="0 0 50 50" width="50px" height="50px"><path d="M33,11H17c-0.6,0-1-0.4-1-1V6c0-2.2,1.8-4,4-4h10c2.2,0,4,1.8,4,4v4C34,10.6,33.6,11,33,11z M18,9h14V6c0-1.1-0.9-2-2-2H20c-1.1,0-2,0.9-2,2V9z"/><path d="M42,9H8c-3.9,0-7,3.1-7,7v31c0,0.6,0.4,1,1,1h46c0.6,0,1-0.4,1-1V16C49,12.1,45.9,9,42,9z M15,40c0-5,6-3.6,7-6.5v-2c-0.4-0.2-1.9-2-1.9-3.6c-0.3,0-0.9-0.4-1-1.7c-0.1-0.7,0.3-1.1,0.5-1.3c-0.3-0.8-0.5-1.6-0.5-2.4c0-3.6,2.5-5.6,7-5.6l0.5,1H27c1.6,0,4,1.6,4,4.6c0,0.7-0.1,1.5-0.5,2.4c0.2,0.1,0.5,0.5,0.5,1.3c-0.2,1.3-0.7,1.7-1,1.7c0,1.6-1.5,3.3-1.9,3.6v2c1,2.9,7,1.5,7,6.5H15z"/></svg>