<svg fill="#cecece" xmlns="http://www.w3.org/2000/svg"  viewBox="0 0 50 50" width="50px" height="50px"><path d="M25,14C12.869,14,3,20.178,3,29s9.869,16,22,16s22-7.178,22-16S37.131,14,25,14z M14,26c0-1.657,1.343-3,3-3s3,1.343,3,3c0,1.656-1.343,3-3,3S14,27.656,14,26z M34.918,35.575C34.8,35.743,31.939,39.7,25,39.7c-6.94,0-9.8-3.957-9.918-4.125c-0.317-0.452-0.208-1.076,0.244-1.394c0.451-0.317,1.071-0.209,1.39,0.239C16.823,34.569,19.167,37.7,25,37.7c5.912,0,8.259-3.242,8.281-3.275c0.316-0.451,0.942-0.562,1.394-0.243C35.126,34.499,35.235,35.123,34.918,35.575z M33,29c-1.656,0-3-1.344-3-3c0-1.657,1.344-3,3-3s3,1.343,3,3C36,27.656,34.656,29,33,29z"/><path d="M47.491 22.847c.985-2.051.638-4.532-1.084-6.254-1.06-1.06-2.447-1.643-3.907-1.643-.865 0-1.694.227-2.455.614C43.4 17.423 45.981 19.92 47.491 22.847zM9.956 15.564C9.194 15.177 8.365 14.95 7.5 14.95c-1.46 0-2.848.583-3.907 1.643-1.722 1.722-2.069 4.204-1.084 6.254C4.019 19.92 6.6 17.423 9.956 15.564zM41 12c-2.206 0-4-1.795-4-4s1.794-4 4-4 4 1.795 4 4S43.206 12 41 12zM35 8c0-.422.045-.834.128-1.231-1.375-.376-2.112-1.16-2.823-1.931C31.511 3.977 30.61 3 29 3c-2.104 0-4.573 1.637-4.946 9.016C24.368 12.008 24.682 12 25 12c.353 0 .702.008 1.051.018C26.289 7.585 27.354 5 29 5c.703 0 1.091.388 1.835 1.194.867.94 2.008 2.144 4.225 2.605C35.024 8.537 35 8.271 35 8z"/></svg>