<svg fill="#cecece" xmlns="http://www.w3.org/2000/svg"  viewBox="0 0 50 50" width="50px" height="50px"><path d="M7,2v46h36V2H7z M16.444,14.93c0.036-0.397,0-0.674,0-1.037c-0.18-0.095-0.683-0.605-0.761-1.174c0,0-0.407-0.194-0.429-0.806c-0.012-0.324,0.216-0.554,0.216-0.554C15.045,9.73,15.229,8.04,17.409,8c0.545,0,0.955,0.263,1.118,0.55c1.517,0,1.123,2.116,0.893,2.808c0.085,0.086,0.19,0.32,0.19,0.636c0,0.453-0.429,0.724-0.429,0.724c-0.082,0.578-0.489,1.055-0.737,1.174c0,0.363-0.036,0.64,0,1.037c0.432,1.16,3.311,0.834,3.445,3.071H13C13.134,15.763,16.013,16.089,16.444,14.93z M28,39H14c-0.552,0-1-0.447-1-1s0.448-1,1-1h14c0.553,0,1,0.447,1,1S28.553,39,28,39z M13,32c0-0.553,0.448-1,1-1h11c0.552,0,1,0.447,1,1s-0.448,1-1,1H14C13.448,33,13,32.553,13,32z M28,27H14c-0.552,0-1-0.447-1-1c0-0.552,0.448-1,1-1h14c0.553,0,1,0.448,1,1C29,26.553,28.553,27,28,27z M36,39h-3c-0.553,0-1-0.447-1-1s0.447-1,1-1h3c0.553,0,1,0.447,1,1S36.553,39,36,39z M36,33h-3c-0.553,0-1-0.447-1-1s0.447-1,1-1h3c0.553,0,1,0.447,1,1S36.553,33,36,33z M36,27h-3c-0.553,0-1-0.447-1-1c0-0.552,0.447-1,1-1h3c0.553,0,1,0.448,1,1C37,26.553,36.553,27,36,27z M36,17h-8c-0.553,0-1-0.448-1-1s0.447-1,1-1h8c0.553,0,1,0.448,1,1S36.553,17,36,17z M36,12h-8c-0.553,0-1-0.448-1-1s0.447-1,1-1h8c0.553,0,1,0.448,1,1S36.553,12,36,12z"/></svg>