<svg fill="#cecece" xmlns="http://www.w3.org/2000/svg"  viewBox="0 0 50 50" width="50px" height="50px"><path d="M45.154 6H4.846C3.276 6 2 7.276 2 8.846V18h46V8.846C48 7.276 46.724 6 45.154 6zM8 14c-1.104 0-2-.896-2-2 0-1.105.896-2 2-2s2 .895 2 2C10 13.104 9.104 14 8 14zM14 14c-1.104 0-2-.896-2-2 0-1.105.896-2 2-2s2 .895 2 2C16 13.104 15.104 14 14 14zM43 14H19v-4h24V14zM2 20v23c0 .553.447 1 1 1h44c.553 0 1-.447 1-1V20H2zM20 38H8v-.778c.172-2.958 3.905-2.527 4.459-4.061.046-.525.029-.891.029-1.37-.231-.124-.867-.92-.937-1.591-.181-.016-.466-.198-.55-.918-.045-.387.134-.604.243-.673C11.103 28.052 10.997 27.508 11 27c.002-.307.032-.6.093-.875C11.37 24.87 12.28 24 13.971 24c.698 0 1.236.192 1.446.572.936.134 1.351.775 1.506 1.552C16.979 26.405 17 26.702 17 27c0 .649-.132 1.265-.243 1.609.109.068.288.286.243.673-.083.72-.369.902-.55.918-.07.671-.689 1.466-.92 1.591 0 .479-.017.845.029 1.37.554 1.534 4.271 1.103 4.442 4.061V38zM39 38H26v-2h13V38zM42 33H26v-2h16V33zM42 28H26v-2h16V28z"/></svg>