<svg fill="#cecece" xmlns="http://www.w3.org/2000/svg"  viewBox="0 0 50 50" width="50px" height="50px"><path d="M12,48.651c-0.174,0-0.347-0.045-0.502-0.135c-0.276-0.161-0.46-0.444-0.493-0.763l-0.343-3.336l1.99-0.204l0.201,1.965 l0.246-0.109l0.811,1.828l-1.505,0.667C12.276,48.623,12.138,48.651,12,48.651z"/><rect width="5.001" height="2" x="15.118" y="44.159" transform="rotate(-23.908 17.622 45.16)"/><path d="M22.138,44.248l-0.811-1.828l1.013-0.449c0.16-0.07,0.34-0.097,0.507-0.081c1.236,0.125,2.495,0.141,3.712,0.053 l0.146,1.994c-1.241,0.091-2.526,0.083-3.795-0.032L22.138,44.248z"/><path d="M28.779,43.69l-0.328-1.973c1.572-0.262,3.111-0.704,4.572-1.314l0.771,1.846C32.191,42.918,30.504,43.403,28.779,43.69z"/><path d="M10.458,42.427l-0.412-4.023c-1.216-1.074-2.303-2.279-3.235-3.586l1.627-1.162c0.916,1.283,1.996,2.458,3.211,3.491 c0.196,0.167,0.32,0.403,0.347,0.66l0.453,4.417L10.458,42.427z"/><path d="M35.687,41.352l-0.941-1.765c1.407-0.75,2.72-1.662,3.9-2.71l1.328,1.495C38.675,39.525,37.232,40.528,35.687,41.352z"/><path d="M41.472,36.908l-1.467-1.36c1.087-1.171,2.019-2.464,2.771-3.844l1.756,0.957C43.7,34.186,42.671,35.615,41.472,36.908z"/><path d="M5.678,33.048c-0.873-1.529-1.545-3.16-1.995-4.848l1.932-0.517c0.407,1.522,1.013,2.993,1.8,4.373L5.678,33.048z"/><path d="M45.442,30.767l-1.846-0.772c0.612-1.461,1.029-2.995,1.24-4.558l1.982,0.268C46.585,27.441,46.121,29.144,45.442,30.767z"/><path d="M3.247,26.143C3.083,25.11,3,24.052,3,23c0-0.699,0.037-1.405,0.109-2.1l1.988,0.207C5.033,21.733,5,22.37,5,23 c0,0.948,0.075,1.9,0.222,2.831L3.247,26.143z"/><path d="M46.991,23.609l-2-0.061C44.997,23.366,45,23.184,45,23c0-1.4-0.161-2.797-0.48-4.15l1.947-0.458 C46.82,19.895,47,21.445,47,23C47,23.204,46.997,23.407,46.991,23.609z"/><path d="M5.394,19.238l-1.957-0.415c0.363-1.709,0.951-3.373,1.749-4.945l1.783,0.905C6.25,16.2,5.72,17.698,5.394,19.238z"/><path d="M43.989,17.032c-0.519-1.483-1.231-2.906-2.119-4.227l1.66-1.115c0.982,1.463,1.772,3.038,2.348,4.682L43.989,17.032z"/><path d="M7.913,13.137l-1.684-1.081c0.939-1.462,2.066-2.814,3.349-4.019l1.369,1.458C9.784,10.587,8.764,11.812,7.913,13.137z"/><path d="M40.732,11.283c-1.005-1.215-2.165-2.313-3.446-3.264l1.191-1.606c1.411,1.047,2.688,2.257,3.796,3.596L40.732,11.283z"/><path d="M12.394,8.26l-1.223-1.582c1.374-1.063,2.881-1.967,4.478-2.686l0.822,1.823C15.016,6.47,13.645,7.292,12.394,8.26z"/><path d="M35.706,6.958c-1.356-0.82-2.813-1.482-4.33-1.968l0.609-1.904c1.665,0.533,3.266,1.26,4.756,2.161L35.706,6.958z"/><path d="M18.243,5.116l-0.646-1.893c1.644-0.562,3.358-0.935,5.098-1.109l0.199,1.99C21.307,4.263,19.742,4.603,18.243,5.116z"/><path d="M29.534,4.493C28.055,4.166,26.529,4,25,4l-0.204,0.001l-0.014-2L25,2c1.674,0,3.345,0.182,4.966,0.54L29.534,4.493z"/><path d="M16,42c-0.173,0-0.346-0.045-0.5-0.134C15.19,41.687,15,41.357,15,41v-5.063C10.606,32.926,8,28.129,8,23 c0-8.822,7.626-16,17-16s17,7.178,17,16s-7.626,16-17,16c-1.028,0-2.06-0.088-3.07-0.262l-5.431,3.128 C16.345,41.956,16.172,42,16,42z"/></svg>