<svg fill="#cecece" xmlns="http://www.w3.org/2000/svg"  viewBox="0 0 50 50" width="50px" height="50px"><path fill="none" d="M0 0H50V50H0z"/><path d="M48.67,29.97c0.32-1.537,0.482-3.123,0.482-4.72c0-12.998-10.72-23.572-23.896-23.572c-1.238,0-2.486,0.096-3.715,0.284C19.345,0.677,16.842,0,14.277,0C6.405,0,0,6.32,0,14.088c0,2.384,0.612,4.726,1.773,6.8c-0.272,1.438-0.41,2.903-0.41,4.361c0,13,10.718,23.576,23.893,23.576c1.351,0,2.707-0.112,4.037-0.335c1.978,0.988,4.194,1.51,6.434,1.51C43.597,50,50,43.681,50,35.912C50,33.825,49.553,31.828,48.67,29.97z M36.998,36.04c-1.061,1.479-2.624,2.649-4.652,3.479c-2.006,0.821-4.414,1.239-7.152,1.239c-3.289,0-6.048-0.569-8.197-1.696c-1.539-0.818-2.81-1.931-3.768-3.299c-0.976-1.381-1.469-2.754-1.469-4.078c0-0.826,0.322-1.545,0.954-2.133c0.629-0.58,1.433-0.873,2.39-0.873c0.786,0,1.465,0.231,2.017,0.69c0.53,0.44,0.979,1.094,1.341,1.935c0.406,0.918,0.848,1.688,1.319,2.301c0.446,0.582,1.093,1.078,1.919,1.461c0.83,0.389,1.948,0.584,3.326,0.584c1.893,0,3.443-0.397,4.609-1.183c1.141-0.767,1.696-1.692,1.696-2.819c0-0.892-0.289-1.592-0.881-2.14c-0.625-0.575-1.451-1.024-2.445-1.329c-1.042-0.318-2.456-0.664-4.203-1.027c-2.376-0.504-4.393-1.098-5.997-1.77c-1.645-0.69-2.967-1.644-3.936-2.837c-0.983-1.215-1.48-2.734-1.48-4.525c0-1.707,0.523-3.245,1.557-4.569c1.02-1.314,2.518-2.342,4.444-3.043c1.897-0.694,4.159-1.042,6.714-1.042c2.046,0,3.845,0.231,5.347,0.694c1.506,0.462,2.781,1.086,3.779,1.857c1.008,0.778,1.754,1.607,2.226,2.47c0.476,0.87,0.716,1.736,0.716,2.573c0,0.807-0.314,1.541-0.939,2.18c-0.625,0.642-1.418,0.965-2.35,0.965c-0.848,0-1.513-0.202-1.974-0.602c-0.429-0.374-0.873-0.958-1.367-1.795c-0.569-1.072-1.261-1.916-2.054-2.507c-0.768-0.576-2.059-0.87-3.823-0.87c-1.641,0-2.975,0.323-3.965,0.965c-0.957,0.617-1.422,1.325-1.422,2.165c0,0.514,0.15,0.943,0.457,1.314c0.329,0.389,0.786,0.734,1.367,1.02c0.603,0.297,1.221,0.536,1.842,0.705c0.636,0.173,1.703,0.433,3.169,0.767c1.853,0.393,3.556,0.829,5.062,1.303c1.524,0.484,2.843,1.075,3.918,1.765c1.093,0.705,1.962,1.607,2.58,2.688c0.618,1.082,0.929,2.422,0.929,3.979C38.6,32.861,38.063,34.557,36.998,36.04z"/></svg>