<svg fill="#cecece" xmlns="http://www.w3.org/2000/svg"  viewBox="0 0 50 50" width="50px" height="50px" fill-rule="evenodd" clip-rule="evenodd"><path fill-rule="nonzero" d="M33 41.929l-18 .071-.1-3 18.1 0 0 2.929zM41.189 20.626l-3.329-18.208 3.067-.527 3.102 18.362-2.84.373zM33 37l-18.1-1.661.25-2.986 18.051 2.147-.201 2.5zM33.362 31.896l-17.731-4.496.745-3 17.267 4.802-.281 2.694zM34.5 27l-15.387-9.299 1.682-2.67 15.106 9.549-1.401 2.42zM37.302 23.038l-10.201-14.958 2.867-1.729 9.852 15.128-2.518 1.559z"/><path fill-rule="nonzero" d="M36,29l0,16l-24,0l0,-16l-3,0l0,18.985l29.903,0.015l0,-0.015c0.03,0 0.097,-18.985 0.097,-18.985l-3,0Z"/></svg>